<svg preserveAspectRatio="xMidYMid meet" version="1.1" xmlns="http://www.w3.org/2000/svg">
  <symbol id="dot-1" viewBox="0 0 100 100">
    <g fill="#000" stroke="#000" stroke-width="3">
      <circle cx="50%" cy="50%" id="circle1" r="6"/>
    </g>
  </symbol>
  <symbol id="dot-2" viewBox="0 0 100 100">
    <g fill="#000" stroke="#000" stroke-width="3">
      <circle cx="20" cy="25" id="circle1" r="6"/>
      <circle cx="75" cy="80" id="circle1" r="6"/>
    </g>
  </symbol>
  <symbol id="dot-3" viewBox="0 0 100 100">
    <g fill="#000" stroke="#000" stroke-width="3">
      <circle cx="15%" cy="25%" id="circle1" r="6"/>
      <circle cx="50%" cy="50%" id="circle1" r="6"/>
      <circle cx="84%" cy="80%" id="circle1" r="6"/>
    </g>
  </symbol>
  <symbol id="dot-4" viewBox="0 0 100 100">
    <g fill="#000" stroke="#000" stroke-width="3">
      <circle cx="20%" cy="30%" id="circle1" r="6"/>
      <circle cx="20%" cy="80%" id="circle1" r="6"/>
      <circle cx="75%" cy="30%" id="circle1" r="6"/>
      <circle cx="75%" cy="80%" id="circle1" r="6"/>
    </g>
  </symbol>
  <symbol id="dot-5" viewBox="0 0 100 100">
    <g fill="#000" stroke="#000" stroke-width="3">
      <circle cx="15%" cy="20%" id="circle1" r="6"/>
      <circle cx="15%" cy="80%" id="circle1" r="6"/>
      <circle cx="50%" cy="50%" id="circle1" r="6"/>
      <circle cx="84%" cy="20%" id="circle1" r="6"/>
      <circle cx="84%" cy="80%" id="circle1" r="6"/>
    </g>
  </symbol>
  <symbol id="dot-6" viewBox="0 0 100 100">
    <g fill="#000" stroke="#000" stroke-width="3">
      <circle cx="15%" cy="20%" id="circle1" r="6"/>
      <circle cx="15%" cy="50%" id="circle1" r="6"/>
      <circle cx="15%" cy="80%" id="circle1" r="6"/>
      <circle cx="84%" cy="20%" id="circle1" r="6"/>
      <circle cx="84%" cy="50%" id="circle1" r="6"/>]
      <circle cx="84%" cy="80%" id="circle1" r="6"/>
    </g>
  </symbol>
</svg>
